# xmcd
# 
# Track frame offsets:
#     150
#     24030
#     47577
#     63975
#     84464
#     104985
#     129664
#     150825
#     174555
#     197505
#     218470
#     235200
#     253945
#     282453
#     302474
#     339315
# 
# Disc length: 4789
# 
# Revision: 0
# Processed by: cddbd v1.5.2PL0 Copyright (c) Steve Scherf et al.
# Submitted via: fre:ac v1.0.27
# 
DISCID=d212b310
DTITLE=jorma kaukonen - 1999-01-30 Chicago
DYEAR=199
DGENRE=Blues
TTITLE0=jk99-01-30t01
TTITLE1=jk99-01-30t02
TTITLE2=jk99-01-30t03
TTITLE3=jk99-01-30t04
TTITLE4=jk99-01-30t05
TTITLE5=jk99-01-30t06
TTITLE6=jk99-01-30t07
TTITLE7=jk99-01-30t08
TTITLE8=jk99-01-30t09
TTITLE9=jk99-01-30t10
TTITLE10=jk99-01-30t11
TTITLE11=jk99-01-30t12
TTITLE12=jk99-01-30t13
TTITLE13=jk99-01-30t14
TTITLE14=jk99-01-30t15
TTITLE15=jk99-01-30t16
EXTD=old town school of folk music\nlate show
EXTT0=
EXTT1=
EXTT2=
EXTT3=
EXTT4=
EXTT5=
EXTT6=
EXTT7=
EXTT8=
EXTT9=
EXTT10=
EXTT11=
EXTT12=
EXTT13=
EXTT14=
EXTT15=
PLAYORDER=
